<?xml version="1.0" encoding="UTF-8"?>
<svg width="1438px" height="511px" viewBox="0 0 1438 511" version="1.1" xmlns="http://www.w3.org/2000/svg" xmlns:xlink="http://www.w3.org/1999/xlink">
    <g stroke="none" stroke-width="1" fill="none" fill-rule="evenodd" opacity="0.05">
        <g id="Index" transform="translate(-1.000000, -2619.000000)" stroke-width="2" stroke="#5C6167">
            <g id="new" transform="translate(1.000000, 2618.925695)">
                <g id="Group" transform="translate(-65.000000, -540.000000)">
                    <g id="Shape">
                        <path d="M0.09,724.757729 C32.451,757.132163 8.409,781.183142 40.77,813.557576 C73.131,845.932009 97.173,821.881029 129.534,854.255463 C161.896,886.630897 137.854,910.682877 170.216,943.05731 C202.58,975.434745 226.621,951.382765 258.985,983.759199 C291.349,1016.13663 267.307,1040.18861 299.672,1072.56605 C332.035,1104.94248 356.077,1080.8915 388.44,1113.26794 C420.804,1145.64637 396.763,1169.69735 429.127,1202.07579 C461.491,1234.45322 485.533,1210.40124 517.897,1242.77868 C550.26,1275.15511 526.218,1299.20709 558.581,1331.58252 C590.945,1363.95996 614.987,1339.90898 647.351,1372.28641 C679.716,1404.66485 655.675,1428.71683 688.04,1461.09526 C720.407,1493.4757 744.448,1469.42372 776.815,1501.80416 C809.182,1534.18459 785.14,1558.23557 817.507,1590.61601"></path>
                        <path d="M13.758,711.084056 C46.119,743.458489 22.077,767.509469 54.438,799.883902 C86.799,832.258335 110.841,808.207356 143.202,840.581789 C175.564,872.957223 151.522,897.008203 183.884,929.383636 C216.248,961.761071 240.289,937.709091 272.653,970.086526 C305.017,1002.46396 280.975,1026.51594 313.34,1058.89337 C345.703,1091.26981 369.745,1067.21783 402.108,1099.59426 C434.472,1131.9727 410.431,1156.02368 442.795,1188.40211 C475.159,1220.77955 499.201,1196.72857 531.565,1229.106 C563.928,1261.48244 539.886,1285.53342 572.249,1317.90985 C604.613,1350.28829 628.655,1326.23631 661.019,1358.61374 C693.384,1390.99218 669.343,1415.04416 701.708,1447.42259 C734.075,1479.80303 758.116,1455.75105 790.483,1488.13148 C822.85,1520.51192 798.808,1544.5629 831.175,1576.94333"></path>
                        <path d="M27.426,697.410382 C59.787,729.783815 35.745,753.835795 68.106,786.210228 C100.467,818.584662 124.509,794.533682 156.87,826.908115 C189.232,859.283549 165.19,883.335529 197.552,915.709963 C229.916,948.087397 253.957,924.035417 286.321,956.411851 C318.685,988.789286 294.643,1012.84127 327.008,1045.2187 C359.371,1077.59513 383.413,1053.54416 415.776,1085.92059 C448.14,1118.29902 424.099,1142.35 456.463,1174.72844 C488.827,1207.10587 512.869,1183.05389 545.233,1215.43133 C577.596,1247.80776 553.554,1271.85974 585.917,1304.23518 C618.281,1336.61261 642.323,1312.56163 674.687,1344.93907 C707.052,1377.3175 683.011,1401.36948 715.376,1433.74792 C747.743,1466.12835 771.784,1442.07637 804.151,1474.45681 C836.518,1506.83724 812.476,1530.88822 844.843,1563.26866"></path>
                        <path d="M41.094,683.736708 C73.455,716.111142 49.413,740.162121 81.774,772.536555 C114.135,804.910988 138.177,780.860008 170.538,813.234442 C202.9,845.609875 178.858,869.660855 211.22,902.036289 C243.584,934.413724 267.625,910.361743 299.989,942.739178 C332.353,975.116613 308.311,999.168593 340.676,1031.54603 C373.039,1063.92246 397.081,1039.87048 429.444,1072.24792 C461.808,1104.62535 437.767,1128.67733 470.131,1161.05477 C502.495,1193.4322 526.537,1169.38122 558.901,1201.75866 C591.264,1234.13509 567.222,1258.18607 599.585,1290.5625 C631.949,1322.93994 655.991,1298.88896 688.355,1331.26639 C720.72,1363.64483 696.679,1387.69681 729.044,1420.07524 C761.411,1452.45568 785.452,1428.4037 817.819,1460.78413 C850.186,1493.16457 826.144,1517.21555 858.511,1549.59599"></path>
                        <path d="M54.762,670.063034 C87.123,702.437468 63.081,726.488447 95.442,758.862881 C127.803,791.237314 151.845,767.186335 184.206,799.560768 C216.568,831.936202 192.526,855.988182 224.888,888.362615 C257.252,920.74005 281.293,896.68807 313.657,929.064504 C346.021,961.441939 321.979,985.493919 354.344,1017.87135 C386.707,1050.24779 410.749,1026.19681 443.112,1058.57324 C475.476,1090.95168 451.435,1115.00266 483.799,1147.38109 C516.163,1179.75853 540.205,1155.70655 572.569,1188.08398 C604.932,1220.46042 580.89,1244.5124 613.253,1276.88783 C645.617,1309.26526 669.659,1285.21428 702.023,1317.59172 C734.388,1349.97015 710.347,1374.02213 742.712,1406.40057 C775.079,1438.781 799.12,1414.72902 831.487,1447.10946 C863.854,1479.4899 839.812,1503.54088 872.179,1535.92131"></path>
                        <path d="M68.43,656.389361 C100.791,688.763794 76.749,712.814774 109.11,745.189207 C141.471,777.563641 165.513,753.51166 197.874,785.887094 C230.236,818.262528 206.194,842.313508 238.556,874.688941 C270.92,907.066376 294.961,883.014396 327.325,915.391831 C359.689,947.769265 335.647,971.821245 368.012,1004.19868 C400.375,1036.57511 424.417,1012.52413 456.78,1044.90057 C489.144,1077.278 465.103,1101.32998 497.467,1133.70842 C529.831,1166.08585 553.873,1142.03387 586.237,1174.41131 C618.6,1206.78774 594.558,1230.83972 626.921,1263.21516 C659.285,1295.59259 683.327,1271.54161 715.691,1303.91905 C748.056,1336.29748 724.015,1360.34946 756.38,1392.7279 C788.747,1425.10833 812.788,1401.05635 845.155,1433.43679 C877.522,1465.81722 853.48,1489.8682 885.847,1522.24864"></path>
                        <path d="M82.098,642.715687 C114.459,675.09012 90.417,699.1411 122.778,731.515533 C155.139,763.889967 179.181,739.838987 211.542,772.213421 C243.904,804.588854 219.862,828.640834 252.224,861.015268 C284.588,893.392702 308.629,869.340722 340.993,901.717156 C373.357,934.094591 349.315,958.146571 381.68,990.524006 C414.043,1022.90044 438.085,998.84846 470.448,1031.22489 C502.812,1063.60333 478.771,1087.65431 511.135,1120.03274 C543.499,1152.41018 567.541,1128.3592 599.905,1160.73663 C632.268,1193.11307 608.226,1217.16405 640.589,1249.54048 C672.953,1281.91792 696.995,1257.86694 729.359,1290.24437 C761.724,1322.62281 737.683,1346.67479 770.048,1379.05322 C802.415,1411.43366 826.456,1387.38168 858.823,1419.76211 C891.19,1452.14255 867.148,1476.19353 899.515,1508.57396"></path>
                        <path d="M95.766,629.042013 C128.127,661.416447 104.085,685.467426 136.446,717.84186 C168.807,750.216293 192.849,726.165313 225.21,758.539747 C257.572,790.915181 233.53,814.96616 265.892,847.341594 C298.256,879.719029 322.297,855.667049 354.661,888.044483 C387.025,920.421918 362.983,944.473898 395.348,976.851333 C427.711,1009.22777 451.753,985.176787 484.116,1017.55322 C516.48,1049.93066 492.439,1073.98264 524.803,1106.36107 C557.167,1138.73851 581.209,1114.68653 613.573,1147.06396 C645.936,1179.44039 621.894,1203.49237 654.257,1235.86781 C686.621,1268.24524 710.663,1244.19426 743.027,1276.5717 C775.392,1308.95013 751.351,1333.00211 783.716,1365.38055 C816.083,1397.76098 840.124,1373.709 872.491,1406.08944 C904.858,1438.46988 880.816,1462.52086 913.183,1494.90129"></path>
                        <path d="M109.434,615.36834 C141.795,647.742773 117.753,671.793753 150.114,704.168186 C182.475,736.542619 206.517,712.49164 238.878,744.866073 C271.24,777.241507 247.198,801.293487 279.56,833.66792 C311.924,866.045355 335.965,841.993375 368.329,874.369809 C400.693,906.747244 376.651,930.799224 409.016,963.176658 C441.379,995.553093 465.421,971.501112 497.784,1003.87755 C530.148,1036.25598 506.107,1060.30696 538.471,1092.6854 C570.835,1125.06283 594.877,1101.01185 627.241,1133.38929 C659.604,1165.76572 635.562,1189.8167 667.925,1222.19313 C700.289,1254.57157 724.331,1230.51959 756.695,1262.89702 C789.06,1295.27546 765.019,1319.32744 797.384,1351.70587 C829.751,1384.08631 853.792,1360.03433 886.159,1392.41477 C918.526,1424.7952 894.484,1448.84618 926.851,1481.22662"></path>
                        <path d="M123.102,601.694666 C155.463,634.068099 131.421,658.120079 163.782,690.494512 C196.143,722.868946 220.185,698.817966 252.546,731.192399 C284.908,763.567833 260.866,787.619813 293.228,819.994247 C325.592,852.371681 349.633,828.319701 381.997,860.696135 C414.361,893.07357 390.319,917.12555 422.684,949.502985 C455.047,981.879419 479.089,957.828439 511.452,990.204873 C543.816,1022.58331 519.775,1046.63429 552.139,1079.01272 C584.503,1111.39016 608.545,1087.33818 640.909,1119.71561 C673.272,1152.09205 649.23,1176.14403 681.593,1208.51946 C713.957,1240.89689 737.999,1216.84592 770.363,1249.22335 C802.728,1281.60178 778.687,1305.65377 811.052,1338.0322 C843.419,1370.41264 867.46,1346.36066 899.827,1378.74109 C932.194,1411.12153 908.152,1435.17251 940.519,1467.55294"></path>
                        <path d="M136.77,588.020992 C169.131,620.395425 145.089,644.446405 177.45,676.820839 C209.811,709.195272 233.853,685.144292 266.214,717.518726 C298.576,749.894159 274.534,773.945139 306.896,806.320573 C339.26,838.698007 363.301,814.646027 395.665,847.023462 C428.029,879.400897 403.987,903.452877 436.352,935.830311 C468.715,968.206746 492.757,944.154765 525.12,976.5322 C557.484,1008.90963 533.443,1032.96161 565.807,1065.33905 C598.171,1097.71648 622.213,1073.6655 654.577,1106.04294 C686.94,1138.41937 662.898,1162.47035 695.261,1194.84679 C727.625,1227.22522 751.667,1203.17324 784.031,1235.55068 C816.396,1267.92911 792.355,1291.98109 824.72,1324.35953 C857.087,1356.73996 881.128,1332.68798 913.495,1365.06842 C945.862,1397.44885 921.82,1421.49983 954.187,1453.88027"></path>
                        <path d="M150.438,574.347318 C182.799,606.721752 158.757,630.772731 191.118,663.147165 C223.479,695.521598 247.521,671.470619 279.882,703.845052 C312.244,736.220486 288.202,760.272466 320.564,792.646899 C352.928,825.024334 376.969,800.972354 409.333,833.348788 C441.697,865.726222 417.655,889.778203 450.02,922.155637 C482.383,954.532071 506.425,930.481092 538.788,962.857526 C571.152,995.235961 547.111,1019.28694 579.475,1051.66538 C611.839,1084.04281 635.881,1059.99083 668.245,1092.36826 C700.608,1124.7447 676.566,1148.79668 708.929,1181.17211 C741.293,1213.54955 765.335,1189.49857 797.699,1221.876 C830.064,1254.25444 806.023,1278.30642 838.388,1310.68485 C870.755,1343.06529 894.796,1319.01331 927.163,1351.39374 C959.53,1383.77418 935.488,1407.82516 967.855,1440.2056"></path>
                        <path d="M164.107,560.672644 C196.468,593.047078 172.426,617.098057 204.787,649.472491 C237.148,681.846924 261.19,657.795944 293.551,690.170378 C325.913,722.545812 301.871,746.596791 334.233,778.972225 C366.596,811.34966 390.638,787.29768 423.002,819.675114 C455.366,852.052549 431.324,876.104529 463.689,908.481963 C496.052,940.858398 520.094,916.807418 552.457,949.183852 C584.821,981.561287 560.78,1005.61327 593.144,1037.9907 C625.508,1070.36814 649.55,1046.31716 681.914,1078.69459 C714.277,1111.07103 690.235,1135.12301 722.598,1167.49844 C754.962,1199.87587 779.004,1175.82489 811.368,1208.20233 C843.733,1240.58076 819.692,1264.63274 852.057,1297.01118 C884.424,1329.39161 908.465,1305.33963 940.832,1337.72007 C973.199,1370.10051 949.157,1394.15149 981.524,1426.53192"></path>
                        <path d="M177.775,546.998971 C210.136,579.373404 186.094,603.424384 218.455,635.798817 C250.816,668.17325 274.858,644.122271 307.219,676.496704 C339.581,708.872138 315.539,732.924118 347.901,765.298551 C380.265,797.675986 404.306,773.624006 436.67,806.00044 C469.034,838.377875 444.992,862.429855 477.357,894.807289 C509.72,927.183724 533.762,903.132744 566.125,935.509178 C598.489,967.887613 574.448,991.938593 606.812,1024.31703 C639.176,1056.69446 663.218,1032.64248 695.582,1065.02092 C727.945,1097.39735 703.903,1121.44833 736.266,1153.82477 C768.63,1186.2022 792.672,1162.15122 825.036,1194.52866 C857.401,1226.90709 833.36,1250.95907 865.725,1283.33751 C898.092,1315.71794 922.133,1291.66596 954.5,1324.0464 C986.867,1356.42683 962.825,1380.47781 995.192,1412.85825"></path>
                        <path d="M191.443,533.325297 C223.804,565.69973 199.762,589.75071 232.123,622.125143 C264.484,654.499577 288.526,630.447597 320.887,662.82303 C353.249,695.198464 329.207,719.249444 361.569,751.624878 C393.933,784.002312 417.974,759.950332 450.338,792.327767 C482.702,824.705201 458.66,848.757181 491.025,881.134616 C523.388,913.51105 547.43,889.460071 579.793,921.836505 C612.157,954.213939 588.116,978.265919 620.48,1010.64435 C652.844,1043.02179 676.886,1018.96981 709.25,1051.34724 C741.613,1083.72368 717.571,1107.77566 749.934,1140.15109 C782.298,1172.52853 806.34,1148.47755 838.704,1180.85498 C871.069,1213.23342 847.028,1237.2854 879.393,1269.66383 C911.76,1302.04427 935.801,1277.99229 968.168,1310.37272 C1000.535,1342.75316 976.493,1366.80414 1008.86,1399.18457"></path>
                        <path d="M205.111,519.651623 C237.472,552.026056 213.43,576.077036 245.791,608.451469 C278.152,640.825903 302.194,616.774923 334.555,649.149357 C366.917,681.52479 342.875,705.57677 375.237,737.951204 C407.601,770.328638 431.642,746.276658 464.006,778.653093 C496.37,811.030527 472.328,835.082507 504.693,867.459942 C537.056,899.836376 561.098,875.784396 593.461,908.16083 C625.825,940.539265 601.784,964.590245 634.148,996.96868 C666.512,1029.34611 690.554,1005.29513 722.918,1037.67257 C755.281,1070.049 731.239,1094.09998 763.602,1126.47642 C795.966,1158.85385 820.008,1134.80287 852.372,1167.18031 C884.737,1199.55874 860.696,1223.61072 893.061,1255.98916 C925.428,1288.36959 949.469,1264.31761 981.836,1296.69805 C1014.203,1329.07848 990.161,1353.12946 1022.528,1385.5099"></path>
                        <path d="M218.779,505.977949 C251.14,538.352383 227.098,562.403362 259.459,594.777796 C291.82,627.152229 315.862,603.101249 348.223,635.475683 C380.585,667.851117 356.543,691.902096 388.905,724.27753 C421.269,756.653964 445.31,732.602985 477.674,764.979419 C510.038,797.356853 485.996,821.408834 518.361,853.786268 C550.724,886.162702 574.766,862.111723 607.129,894.488157 C639.493,926.866592 615.452,950.917572 647.816,983.296007 C680.18,1015.67344 704.222,991.621461 736.586,1023.9989 C768.949,1056.37533 744.907,1080.42731 777.27,1112.80274 C809.634,1145.18018 833.676,1121.1292 866.04,1153.50663 C898.405,1185.88507 874.364,1209.93705 906.729,1242.31548 C939.096,1274.69592 963.137,1250.64394 995.504,1283.02438 C1027.871,1315.40481 1003.829,1339.45579 1036.196,1371.83623"></path>
                        <path d="M232.447,492.304276 C264.808,524.678709 240.766,548.729689 273.127,581.104122 C305.488,613.478555 329.53,589.427576 361.891,621.802009 C394.253,654.177443 370.211,678.228423 402.573,710.603856 C434.937,742.981291 458.978,718.929311 491.342,751.306746 C523.706,783.68418 499.664,807.73616 532.029,840.113595 C564.392,872.490029 588.434,848.438049 620.797,880.814483 C653.161,913.192918 629.12,937.243898 661.484,969.622333 C693.848,1001.99977 717.89,977.948788 750.254,1010.32622 C782.617,1042.70266 758.575,1066.75364 790.938,1099.13007 C823.302,1131.50851 847.344,1107.45653 879.708,1139.83396 C912.073,1172.2124 888.032,1196.26438 920.397,1228.64281 C952.764,1261.02325 976.805,1236.97127 1009.172,1269.3517 C1041.539,1301.73214 1017.497,1325.78312 1049.864,1358.16355"></path>
                        <path d="M246.115,478.630602 C278.476,511.004035 254.434,535.056015 286.795,567.430448 C319.156,599.804882 343.198,575.753902 375.559,608.128335 C407.921,640.503769 383.879,664.555749 416.241,696.930183 C448.605,729.307617 472.646,705.255637 505.01,737.632071 C537.374,770.009506 513.332,794.061486 545.697,826.438921 C578.06,858.815355 602.102,834.764375 634.465,867.140809 C666.829,899.519244 642.788,923.570224 675.152,955.948659 C707.516,988.326094 731.558,964.274114 763.922,996.651548 C796.285,1029.02798 772.243,1053.07996 804.606,1085.4554 C836.97,1117.83283 861.012,1093.78185 893.376,1126.15929 C925.741,1158.53772 901.7,1182.5897 934.065,1214.96814 C966.432,1247.34857 990.473,1223.29659 1022.84,1255.67703 C1055.207,1288.05746 1031.165,1312.10844 1063.532,1344.48888"></path>
                        <path d="M259.783,464.956928 C292.144,497.331362 268.102,521.382341 300.463,553.756775 C332.824,586.131208 356.866,562.080228 389.227,594.454662 C421.589,626.830095 397.547,650.881075 429.909,683.256509 C462.273,715.633944 486.314,691.581963 518.678,723.959398 C551.042,756.336833 527,780.388813 559.365,812.766247 C591.728,845.142682 615.77,821.090702 648.133,853.468136 C680.497,885.845571 656.456,909.897551 688.82,942.274985 C721.184,974.65242 745.226,950.60144 777.59,982.978875 C809.953,1015.35531 785.911,1039.40629 818.274,1071.78272 C850.638,1104.16116 874.68,1080.10918 907.044,1112.48661 C939.409,1144.86505 915.368,1168.91703 947.733,1201.29546 C980.1,1233.6759 1004.141,1209.62392 1036.508,1242.00435 C1068.875,1274.38479 1044.833,1298.43577 1077.2,1330.81621"></path>
                        <path d="M273.451,451.283254 C305.812,483.657688 281.77,507.708667 314.131,540.083101 C346.492,572.457534 370.534,548.406555 402.895,580.780988 C435.257,613.156422 411.215,637.208402 443.577,669.582835 C475.941,701.96027 499.982,677.90829 532.346,710.284724 C564.71,742.662159 540.668,766.714139 573.033,799.091573 C605.396,831.468007 629.438,807.417028 661.801,839.793462 C694.165,872.171897 670.124,896.222877 702.488,928.601312 C734.852,960.978746 758.894,936.926766 791.258,969.304201 C823.621,1001.68064 799.579,1025.73262 831.942,1058.10805 C864.306,1090.48548 888.348,1066.4345 920.712,1098.81194 C953.077,1131.19037 929.036,1155.24235 961.401,1187.62079 C993.768,1220.00122 1017.809,1195.94924 1050.176,1228.32968 C1082.543,1260.71012 1058.501,1284.7611 1090.868,1317.14153"></path>
                        <path d="M287.119,437.609581 C319.48,469.984014 295.438,494.034994 327.799,526.409427 C360.16,558.783861 384.202,534.73188 416.563,567.107314 C448.925,599.482748 424.883,623.533728 457.245,655.909161 C489.609,688.286596 513.65,664.234616 546.014,696.612051 C578.378,728.989485 554.336,753.041465 586.701,785.4189 C619.064,817.795334 643.106,793.744355 675.469,826.120789 C707.833,858.498223 683.792,882.550203 716.156,914.927638 C748.52,947.305073 772.562,923.254093 804.926,955.631528 C837.289,988.007962 813.247,1012.05994 845.61,1044.43538 C877.974,1076.81281 902.016,1052.76183 934.38,1085.13927 C966.745,1117.5177 942.704,1141.56968 975.069,1173.94812 C1007.436,1206.32855 1031.477,1182.27657 1063.844,1214.65701 C1096.211,1247.03744 1072.169,1271.08842 1104.536,1303.46886"></path>
                        <path d="M300.787,423.935907 C333.148,456.31034 309.106,480.36132 341.467,512.735753 C373.828,545.110187 397.87,521.059207 430.231,553.433641 C462.593,585.809074 438.551,609.861054 470.913,642.235488 C503.277,674.612922 527.318,650.560942 559.682,682.937377 C592.046,715.314811 568.004,739.366791 600.369,771.744226 C632.732,804.12066 656.774,780.06968 689.137,812.446115 C721.501,844.82455 697.46,868.875529 729.824,901.253964 C762.188,933.631399 786.23,909.580419 818.594,941.957854 C850.957,974.334288 826.915,998.385268 859.278,1030.7617 C891.642,1063.13914 915.684,1039.08816 948.048,1071.46559 C980.413,1103.84403 956.372,1127.89601 988.737,1160.27444 C1021.104,1192.65488 1045.145,1168.6029 1077.512,1200.98333 C1109.879,1233.36377 1085.837,1257.41475 1118.204,1289.79518"></path>
                        <path d="M314.455,410.262233 C346.816,442.636667 322.774,466.687646 355.135,499.06208 C387.496,531.436513 411.538,507.384533 443.899,539.759967 C476.261,572.135401 452.219,596.18638 484.581,628.561814 C516.945,660.939249 540.986,636.887269 573.35,669.264703 C605.714,701.642138 581.672,725.694118 614.037,758.071553 C646.4,790.447987 670.442,766.397007 702.805,798.773441 C735.169,831.150876 711.128,855.202856 743.492,887.581291 C775.856,919.958726 799.898,895.906746 832.262,928.28418 C864.625,960.660614 840.583,984.712594 872.946,1017.08803 C905.31,1049.46546 929.352,1025.41448 961.716,1057.79192 C994.081,1090.17035 970.04,1114.22233 1002.405,1146.60077 C1034.772,1178.9812 1058.813,1154.92922 1091.18,1187.30966 C1123.547,1219.6901 1099.505,1243.74108 1131.872,1276.12151"></path>
                        <path d="M328.124,396.58856 C360.485,428.962993 336.443,453.013973 368.804,485.388406 C401.165,517.762839 425.207,493.71186 457.568,526.086293 C489.93,558.461727 465.888,582.513707 498.25,614.88814 C530.614,647.265575 554.655,623.213595 587.019,655.590029 C619.383,687.967464 595.342,712.019444 627.706,744.396878 C660.069,776.773313 684.111,752.721333 716.474,785.097767 C748.838,817.476202 724.797,841.527181 757.161,873.905616 C789.525,906.283051 813.567,882.232071 845.931,914.609506 C878.294,946.98594 854.252,971.03692 886.615,1003.41335 C918.979,1035.79079 943.021,1011.73981 975.385,1044.11724 C1007.75,1076.49568 983.709,1100.54766 1016.074,1132.92609 C1048.441,1165.30653 1072.482,1141.25455 1104.849,1173.63499 C1137.216,1206.01542 1113.174,1230.0664 1145.541,1262.44684"></path>
                        <path d="M341.792,382.913885 C374.153,415.288319 350.111,439.339298 382.472,471.713732 C414.833,504.088165 438.875,480.037186 471.236,512.411619 C503.598,544.787053 479.556,568.839033 511.918,601.213466 C544.282,633.590901 568.323,609.538921 600.687,641.915355 C633.051,674.29279 609.009,698.34477 641.374,730.722204 C673.737,763.098638 697.779,739.047659 730.142,771.424093 C762.506,803.802528 738.465,827.853508 770.829,860.231943 C803.193,892.609377 827.235,868.557397 859.599,900.934832 C891.962,933.311266 867.92,957.363246 900.283,989.73868 C932.647,1022.11611 956.689,998.065135 989.053,1030.44257 C1021.418,1062.821 997.377,1086.87298 1029.742,1119.25142 C1062.109,1151.63186 1086.15,1127.57988 1118.517,1159.96031 C1150.884,1192.34075 1126.842,1216.39173 1159.209,1248.77216"></path>
                        <path d="M355.46,369.240212 C387.821,401.614645 363.779,425.665625 396.14,458.040058 C428.501,490.414491 452.543,466.363512 484.904,498.737945 C517.266,531.113379 493.224,555.164359 525.586,587.539792 C557.95,619.917227 581.991,595.865247 614.355,628.242682 C646.719,660.620116 622.677,684.672096 655.042,717.049531 C687.405,749.425965 711.447,725.373985 743.81,757.750419 C776.174,790.128854 752.133,814.179834 784.497,846.558269 C816.861,878.935704 840.903,854.884724 873.267,887.262159 C905.63,919.638593 881.588,943.689572 913.951,976.066007 C946.315,1008.44444 970.357,984.392462 1002.721,1016.7699 C1035.086,1049.14833 1011.045,1073.20031 1043.41,1105.57875 C1075.777,1137.95918 1099.818,1113.9072 1132.185,1146.28764 C1164.552,1178.66807 1140.51,1202.71905 1172.877,1235.09949"></path>
                        <path d="M369.128,355.566538 C401.489,387.939971 377.447,411.991951 409.808,444.366384 C442.169,476.740818 466.211,452.689838 498.572,485.064271 C530.934,517.439705 506.892,541.491685 539.254,573.866119 C571.617,606.243553 595.659,582.191573 628.023,614.568007 C660.387,646.945442 636.345,670.997422 668.71,703.374857 C701.073,735.751291 725.115,711.700311 757.478,744.076746 C789.842,776.455181 765.801,800.50616 798.165,832.884595 C830.529,865.26203 854.571,841.21005 886.935,873.587484 C919.298,905.963919 895.256,930.015899 927.619,962.391333 C959.983,994.768767 984.025,970.717787 1016.389,1003.09522 C1048.754,1035.47366 1024.713,1059.52564 1057.078,1091.90407 C1089.445,1124.28451 1113.486,1100.23253 1145.853,1132.61296 C1178.22,1164.9934 1154.178,1189.04438 1186.545,1221.42482"></path>
                        <path d="M382.796,341.892864 C415.157,374.267298 391.115,398.318277 423.476,430.692711 C455.837,463.067144 479.879,439.016164 512.24,471.390598 C544.602,503.766032 520.56,527.817011 552.922,560.192445 C585.285,592.56988 609.327,568.5179 641.691,600.895334 C674.055,633.272769 650.014,657.324749 682.378,689.702183 C714.741,722.078618 738.783,698.026638 771.146,730.404072 C803.51,762.781507 779.469,786.833487 811.833,819.210922 C844.197,851.588356 868.239,827.537377 900.603,859.914811 C932.966,892.291245 908.924,916.342225 941.287,948.718659 C973.651,981.096094 997.693,957.045114 1030.057,989.422549 C1062.422,1021.80098 1038.381,1045.85296 1070.746,1078.2314 C1103.113,1110.61183 1127.154,1086.55985 1159.521,1118.94029 C1191.888,1151.32073 1167.846,1175.37171 1200.213,1207.75214"></path>
                        <path d="M396.464,328.219191 C428.825,360.593624 404.783,384.644604 437.144,417.019037 C469.505,449.39347 493.547,425.342491 525.908,457.716924 C558.27,490.092358 534.228,514.144338 566.59,546.518771 C598.953,578.896206 622.995,554.844226 655.359,587.22066 C687.723,619.598095 663.682,643.650075 696.046,676.027509 C728.409,708.403944 752.451,684.352964 784.814,716.729398 C817.178,749.107833 793.137,773.158813 825.501,805.537248 C857.865,837.914682 881.907,813.862702 914.271,846.240137 C946.634,878.616571 922.592,902.668551 954.955,935.043985 C987.319,967.42142 1011.361,943.37044 1043.725,975.747875 C1076.09,1008.12631 1052.049,1032.17829 1084.414,1064.55672 C1116.781,1096.93716 1140.822,1072.88518 1173.189,1105.26562 C1205.556,1137.64605 1181.514,1161.69703 1213.881,1194.07747"></path>
                        <path d="M410.132,314.545517 C442.493,346.91995 418.451,370.97093 450.812,403.345363 C483.173,435.719797 507.215,411.667817 539.576,444.04325 C571.938,476.418684 547.896,500.469664 580.258,532.845098 C612.622,565.222532 636.663,541.170552 669.027,573.547987 C701.391,605.925421 677.349,629.977401 709.714,662.354836 C742.077,694.73127 766.119,670.680291 798.482,703.056725 C830.846,735.434159 806.805,759.486139 839.169,791.863574 C871.533,824.241009 895.575,800.190029 927.939,832.567464 C960.302,864.943898 936.26,888.995878 968.623,921.371312 C1000.987,953.748746 1025.029,929.697767 1057.393,962.075201 C1089.758,994.453636 1065.717,1018.50562 1098.082,1050.88405 C1130.449,1083.26449 1154.49,1059.21251 1186.857,1091.59294 C1219.224,1123.97338 1195.182,1148.02436 1227.549,1180.40479"></path>
                        <path d="M423.8,300.871843 C456.161,333.246276 432.119,357.297256 464.48,389.671689 C496.841,422.046123 520.883,397.995143 553.244,430.369577 C585.606,462.74501 561.564,486.79699 593.926,519.171424 C626.29,551.548858 650.331,527.496878 682.695,559.873313 C715.059,592.250747 691.017,616.302727 723.382,648.680162 C755.745,681.056596 779.787,657.004616 812.15,689.38105 C844.514,721.759485 820.473,745.810465 852.837,778.1889 C885.201,810.566335 909.243,786.515355 941.607,818.89279 C973.97,851.269224 949.928,875.320203 982.291,907.696638 C1014.655,940.074072 1038.697,916.023093 1071.061,948.400527 C1103.426,980.778962 1079.385,1004.83094 1111.75,1037.20938 C1144.117,1069.58981 1168.158,1045.53783 1200.525,1077.91827 C1232.892,1110.2987 1208.85,1134.34968 1241.217,1166.73012"></path>
                        <path d="M437.468,287.198169 C469.829,319.572603 445.787,343.623582 478.148,375.998016 C510.509,408.372449 534.551,384.321469 566.912,416.695903 C599.274,449.071337 575.232,473.122316 607.594,505.49775 C639.957,537.875185 663.999,513.823205 696.363,546.200639 C728.727,578.578074 704.685,602.630054 737.05,635.007489 C769.413,667.383923 793.455,643.332943 825.818,675.709377 C858.182,708.086812 834.141,732.138792 866.505,764.517227 C898.869,796.894662 922.911,772.842682 955.275,805.220116 C987.638,837.59655 963.596,861.648531 995.959,894.023964 C1028.323,926.401399 1052.365,902.350419 1084.729,934.727854 C1117.094,967.106289 1093.053,991.158269 1125.418,1023.5367 C1157.785,1055.91714 1181.826,1031.86516 1214.193,1064.2456 C1246.56,1096.62603 1222.518,1120.67701 1254.885,1153.05745"></path>
                        <path d="M451.136,273.524496 C483.497,305.898929 459.455,329.949909 491.816,362.324342 C524.177,394.698775 548.219,370.647796 580.58,403.022229 C612.942,435.397663 588.9,459.449643 621.262,491.824076 C653.626,524.201511 677.667,500.149531 710.031,532.525965 C742.395,564.9034 718.354,588.95538 750.718,621.332814 C783.081,653.709249 807.123,629.657269 839.486,662.033703 C871.85,694.412138 847.809,718.463117 880.173,750.841553 C912.537,783.218987 936.579,759.168007 968.943,791.545442 C1001.306,823.921876 977.264,847.972856 1009.627,880.34929 C1041.991,912.726725 1066.033,888.675745 1098.397,921.05318 C1130.762,953.431615 1106.721,977.483595 1139.086,1009.86203 C1171.453,1042.24247 1195.494,1018.19049 1227.861,1050.57092 C1260.228,1082.95136 1236.186,1107.00234 1268.553,1139.38277"></path>
                        <path d="M464.804,259.850822 C497.165,292.225255 473.123,316.276235 505.484,348.650668 C537.845,381.025102 561.887,356.974122 594.248,389.348555 C626.61,421.723989 602.568,445.775969 634.93,478.150403 C667.294,510.527837 691.335,486.475857 723.699,518.852291 C756.063,551.229726 732.021,575.281706 764.386,607.659141 C796.749,640.035575 820.791,615.984595 853.154,648.361029 C885.518,680.739465 861.477,704.790444 893.841,737.168879 C926.205,769.546314 950.247,745.494334 982.611,777.871768 C1014.974,810.248203 990.932,834.300183 1023.295,866.675616 C1055.659,899.053051 1079.701,875.002071 1112.065,907.379506 C1144.43,939.757941 1120.389,963.809921 1152.754,996.188356 C1185.121,1028.56879 1209.162,1004.51681 1241.529,1036.89725 C1273.896,1069.27768 1249.854,1093.32866 1282.221,1125.7091"></path>
                        <path d="M478.472,246.177148 C510.833,278.551582 486.791,302.602561 519.152,334.976995 C551.513,367.351428 575.555,343.300448 607.916,375.674882 C640.278,408.050315 616.236,432.101295 648.598,464.476729 C680.962,496.854164 705.003,472.802183 737.367,505.179618 C769.731,537.557053 745.689,561.609033 778.054,593.986467 C810.417,626.362902 834.459,602.310922 866.822,634.688356 C899.186,667.065791 875.145,691.117771 907.509,723.495205 C939.873,755.87264 963.915,731.82166 996.279,764.199095 C1028.642,796.575529 1004.6,820.626509 1036.963,853.002943 C1069.327,885.381378 1093.369,861.329398 1125.733,893.706833 C1158.098,926.085268 1134.057,950.137248 1166.422,982.515683 C1198.789,1014.89612 1222.83,990.844139 1255.197,1023.22457 C1287.564,1055.60501 1263.522,1079.65599 1295.889,1112.03643"></path>
                        <path d="M492.14,232.503474 C524.501,264.876907 500.459,288.928888 532.82,321.303321 C565.181,353.677754 589.223,329.626775 621.584,362.001208 C653.946,394.376642 629.904,418.428622 662.266,450.803055 C694.63,483.18049 718.671,459.12851 751.035,491.504944 C783.399,523.882379 759.357,547.934359 791.722,580.311793 C824.085,612.688227 848.127,588.637248 880.49,621.013682 C912.854,653.392117 888.813,677.443097 921.177,709.821532 C953.541,742.198966 977.583,718.146986 1009.947,750.524421 C1042.31,782.900855 1018.268,806.952835 1050.631,839.328269 C1082.995,871.705704 1107.037,847.654724 1139.401,880.032159 C1171.766,912.410594 1147.725,936.462574 1180.09,968.841009 C1212.457,1001.22144 1236.498,977.169465 1268.865,1009.5499 C1301.232,1041.93034 1277.19,1065.98132 1309.557,1098.36175"></path>
                        <path d="M505.808,218.829801 C538.169,251.204234 514.127,275.255214 546.488,307.629647 C578.849,340.004081 602.891,315.953101 635.252,348.327534 C667.614,380.702968 643.572,404.753948 675.934,437.129381 C708.298,469.506816 732.339,445.454836 764.703,477.832271 C797.067,510.209705 773.026,534.261685 805.39,566.63912 C837.753,599.015554 861.795,574.964575 894.158,607.341009 C926.522,639.718443 902.481,663.770423 934.845,696.147858 C967.209,728.525293 991.251,704.474313 1023.615,736.851748 C1055.978,769.228182 1031.936,793.279161 1064.299,825.655596 C1096.663,858.03303 1120.705,833.982051 1153.069,866.359485 C1185.434,898.73792 1161.393,922.7899 1193.758,955.168335 C1226.125,987.548771 1250.166,963.496791 1282.533,995.877227 C1314.9,1028.25766 1290.858,1052.30864 1323.225,1084.68908"></path>
                        <path d="M519.477,205.156127 C551.838,237.53056 527.796,261.58154 560.157,293.955973 C592.518,326.330407 616.56,302.279427 648.921,334.653861 C681.283,367.029294 657.241,391.081274 689.603,423.455708 C721.967,455.833142 746.008,431.781162 778.372,464.157597 C810.736,496.535031 786.694,520.587011 819.059,552.964446 C851.422,585.34088 875.464,561.2899 907.827,593.666335 C940.191,626.04477 916.15,650.095749 948.514,682.474184 C980.878,714.851619 1004.92,690.799639 1037.284,723.177073 C1069.647,755.553508 1045.605,779.605488 1077.968,811.980922 C1110.332,844.358356 1134.374,820.307377 1166.738,852.684811 C1199.103,885.063246 1175.062,909.115226 1207.427,941.493661 C1239.794,973.874097 1263.835,949.822117 1296.202,982.202553 C1328.569,1014.58299 1304.527,1038.63397 1336.894,1071.0144"></path>
                        <path d="M533.145,191.481453 C565.506,223.855886 541.464,247.906866 573.825,280.281299 C606.186,312.655733 630.228,288.603753 662.589,320.979186 C694.951,353.35462 670.909,377.4056 703.271,409.781034 C735.635,442.158468 759.676,418.106488 792.04,450.483923 C824.404,482.861357 800.362,506.913337 832.727,539.290772 C865.09,571.667206 889.132,547.616227 921.495,579.992661 C953.859,612.370095 929.818,636.422076 962.182,668.800511 C994.546,701.177945 1018.588,677.125965 1050.952,709.5034 C1083.315,741.879834 1059.273,765.931814 1091.636,798.307248 C1124,830.684682 1148.042,806.633703 1180.406,839.011137 C1212.771,871.389572 1188.73,895.441553 1221.095,927.819988 C1253.462,960.200423 1277.503,936.148443 1309.87,968.528879 C1342.237,1000.90932 1318.195,1024.96029 1350.562,1057.34073"></path>
                        <path d="M546.813,177.807779 C579.174,210.182213 555.132,234.233192 587.493,266.607626 C619.854,298.982059 643.896,274.931079 676.257,307.305513 C708.619,339.680946 684.577,363.732927 716.939,396.10736 C749.303,428.484795 773.344,404.432814 805.708,436.809249 C838.072,469.186683 814.03,493.238663 846.395,525.616098 C878.758,557.992532 902.8,533.940552 935.163,566.316986 C967.527,598.695421 943.486,622.746401 975.85,655.124836 C1008.214,687.502271 1032.256,663.451291 1064.62,695.828726 C1096.983,728.20516 1072.941,752.256139 1105.304,784.632574 C1137.668,817.010008 1161.71,792.959029 1194.074,825.336463 C1226.439,857.714898 1202.398,881.766878 1234.763,914.145313 C1267.13,946.525749 1291.171,922.473769 1323.538,954.854205 C1355.905,987.234641 1331.863,1011.28562 1364.23,1043.66606"></path>
                        <path d="M560.481,164.134105 C592.842,196.508539 568.8,220.559518 601.16,252.933952 C633.521,285.308385 657.563,261.257406 689.924,293.631839 C722.286,326.007273 698.244,350.058252 730.606,382.433686 C762.97,414.811121 787.011,390.759141 819.375,423.136575 C851.739,455.51401 827.698,479.56599 860.062,511.943425 C892.425,544.319859 916.467,520.268879 948.83,552.645313 C981.194,585.022748 957.153,609.074728 989.517,641.453163 C1021.881,673.830598 1045.923,649.778618 1078.287,682.156052 C1110.65,714.532487 1086.608,738.584467 1118.971,770.9599 C1151.335,803.337335 1175.377,779.286355 1207.741,811.66379 C1240.106,844.042225 1216.065,868.094205 1248.43,900.47264 C1280.797,932.853076 1304.838,908.801096 1337.205,941.181532 C1369.572,973.561968 1345.53,997.612947 1377.897,1029.99338"></path>
                        <path d="M574.149,150.460432 C606.51,182.834865 582.468,206.885845 614.829,239.260278 C647.19,271.634711 671.232,247.583732 703.593,279.958165 C735.955,312.333599 711.913,336.385579 744.275,368.760012 C776.639,401.137447 800.68,377.085467 833.044,409.461901 C865.408,441.839336 841.366,465.891316 873.731,498.268751 C906.094,530.645185 930.136,506.593205 962.499,538.969639 C994.863,571.348074 970.822,595.399054 1003.186,627.777489 C1035.55,660.154923 1059.592,636.103944 1091.956,668.481378 C1124.319,700.857812 1100.277,724.908792 1132.64,757.285226 C1165.004,789.663661 1189.046,765.611681 1221.41,797.989116 C1253.775,830.367551 1229.734,854.419531 1262.099,886.797966 C1294.466,919.178402 1318.507,895.126422 1350.874,927.506858 C1383.241,959.887293 1359.199,983.938273 1391.566,1016.31871"></path>
                        <path d="M587.817,136.786758 C620.178,169.160191 596.136,193.212171 628.497,225.586604 C660.858,257.961038 684.9,233.910058 717.261,266.284491 C749.623,298.659925 725.581,322.711905 757.943,355.086339 C790.307,387.463773 814.348,363.411793 846.712,395.788227 C879.076,428.165662 855.034,452.217642 887.399,484.595077 C919.762,516.971511 943.804,492.920531 976.167,525.296966 C1008.531,557.675401 984.49,581.72638 1016.854,614.104815 C1049.218,646.48225 1073.26,622.43027 1105.624,654.807704 C1137.987,687.184139 1113.945,711.236119 1146.308,743.611553 C1178.672,775.988987 1202.714,751.938007 1235.078,784.315442 C1267.443,816.693877 1243.402,840.745857 1275.767,873.124292 C1308.134,905.504728 1332.175,881.452748 1364.542,913.833184 C1396.909,946.21362 1372.867,970.264599 1405.234,1002.64504"></path>
                        <path d="M601.485,123.113084 C633.846,155.487518 609.804,179.538497 642.165,211.912931 C674.526,244.287364 698.568,220.236384 730.929,252.610818 C763.291,284.986252 739.249,309.037231 771.611,341.412665 C803.975,373.7901 828.016,349.73812 860.38,382.115554 C892.744,414.492989 868.702,438.544969 901.067,470.922403 C933.43,503.298838 957.472,479.246858 989.835,511.624292 C1022.199,544.001727 998.158,568.053707 1030.522,600.431142 C1062.886,632.808576 1086.928,608.757597 1119.292,641.135031 C1151.655,673.511465 1127.613,697.562445 1159.976,729.938879 C1192.34,762.317314 1216.382,738.265334 1248.746,770.642769 C1281.111,803.021204 1257.07,827.073184 1289.435,859.451619 C1321.802,891.832055 1345.843,867.780075 1378.21,900.160511 C1410.577,932.540946 1386.535,956.591926 1418.902,988.972362"></path>
                        <path d="M615.153,109.439411 C647.514,141.813844 623.472,165.864824 655.833,198.239257 C688.194,230.61369 712.236,206.562711 744.597,238.937144 C776.959,271.312578 752.917,295.364558 785.279,327.738991 C817.643,360.116426 841.684,336.064446 874.048,368.44088 C906.412,400.818315 882.371,424.870295 914.735,457.247729 C947.098,489.624164 971.14,465.573184 1003.503,497.949618 C1035.867,530.328053 1011.826,554.379033 1044.19,586.757468 C1076.554,619.134902 1100.596,595.082922 1132.96,627.460357 C1165.323,659.836791 1141.281,683.888771 1173.644,716.264205 C1206.008,748.64164 1230.05,724.59066 1262.414,756.968095 C1294.779,789.34653 1270.738,813.39851 1303.103,845.776945 C1335.47,878.157381 1359.511,854.105401 1391.878,886.485836 C1424.245,918.866272 1400.203,942.917252 1432.57,975.297688"></path>
                        <path d="M628.821,95.7657368 C661.182,128.14017 637.14,152.19115 669.501,184.565583 C701.862,216.940017 725.904,192.889037 758.265,225.26347 C790.627,257.638904 766.585,281.689884 798.947,314.065318 C831.311,346.442752 855.352,322.390772 887.716,354.768207 C920.08,387.145641 896.038,411.197621 928.403,443.575056 C960.766,475.95149 984.808,451.900511 1017.171,484.276945 C1049.535,516.654379 1025.494,540.706359 1057.858,573.083794 C1090.222,605.461229 1114.264,581.410249 1146.628,613.787684 C1178.991,646.164118 1154.949,670.216098 1187.312,702.591532 C1219.676,734.968966 1243.718,710.917987 1276.082,743.295421 C1308.447,775.673856 1284.406,799.725836 1316.771,832.104271 C1349.138,864.484707 1373.179,840.432727 1405.546,872.813163 C1437.913,905.193599 1413.871,929.244579 1446.238,961.625015"></path>
                        <path d="M642.489,82.0920631 C674.85,114.466496 650.808,138.517476 683.169,170.89191 C715.53,203.266343 739.572,179.215363 771.933,211.589797 C804.295,243.96523 780.253,268.01721 812.615,300.391644 C844.979,332.769078 869.02,308.717098 901.384,341.093533 C933.748,373.470967 909.706,397.522947 942.071,429.900382 C974.434,462.276816 998.476,438.225836 1030.839,470.602271 C1063.203,502.980706 1039.162,527.031685 1071.526,559.41012 C1103.89,591.787555 1127.932,567.735575 1160.296,600.11401 C1192.659,632.490444 1168.617,656.541424 1200.98,688.917858 C1233.344,721.295293 1257.386,697.244313 1289.75,729.621748 C1322.115,762.000183 1298.074,786.052163 1330.439,818.430598 C1362.806,850.811034 1386.847,826.759054 1419.214,859.139489 C1451.581,891.519925 1427.539,915.570905 1459.906,947.951341"></path>
                        <path d="M656.157,68.4183894 C688.518,100.792823 664.476,124.843802 696.837,157.218236 C729.198,189.592669 753.24,165.540689 785.601,197.916123 C817.963,230.291557 793.921,254.342536 826.283,286.71797 C858.647,319.095405 882.688,295.043425 915.052,327.420859 C947.416,359.798294 923.374,383.850274 955.739,416.227709 C988.102,448.604143 1012.144,424.553163 1044.507,456.929597 C1076.871,489.307032 1052.83,513.359012 1085.194,545.737447 C1117.558,578.114882 1141.6,554.062902 1173.964,586.440336 C1206.327,618.81677 1182.285,642.868751 1214.648,675.244184 C1247.012,707.621619 1271.054,683.570639 1303.418,715.948074 C1335.783,748.326509 1311.742,772.378489 1344.107,804.756924 C1376.474,837.13736 1400.515,813.08538 1432.882,845.465816 C1465.249,877.846252 1441.207,901.897231 1473.574,934.277667"></path>
                        <path d="M669.825,54.7447156 C702.186,87.119149 678.144,111.170129 710.505,143.544562 C742.866,175.918995 766.908,151.868016 799.269,184.242449 C831.631,216.617883 807.589,240.669863 839.951,273.044296 C872.314,305.421731 896.356,281.369751 928.72,313.746185 C961.084,346.12362 937.043,370.1756 969.407,402.553034 C1001.77,434.929469 1025.812,410.877489 1058.175,443.253923 C1090.539,475.632358 1066.498,499.683337 1098.862,532.061773 C1131.226,564.439207 1155.268,540.388227 1187.632,572.765662 C1219.995,605.142096 1195.953,629.193076 1228.316,661.56951 C1260.68,693.946945 1284.722,669.895965 1317.086,702.2734 C1349.451,734.651835 1325.41,758.703815 1357.775,791.08225 C1390.142,823.462686 1414.183,799.410706 1446.55,831.791142 C1478.917,864.171577 1454.875,888.222557 1487.242,920.602993"></path>
                        <path d="M683.493,41.0700415 C715.854,73.4444749 691.812,97.4954545 724.173,129.869888 C756.534,162.244321 780.576,138.193342 812.937,170.567775 C845.299,202.943209 821.257,226.995189 853.619,259.369622 C885.983,291.746056 910.024,267.695077 942.388,300.071511 C974.752,332.448946 950.711,356.500926 983.075,388.87836 C1015.438,421.254795 1039.48,397.203815 1071.843,429.580249 C1104.207,461.958684 1080.166,486.009664 1112.53,518.388099 C1144.894,550.765533 1168.936,526.713553 1201.3,559.090988 C1233.663,591.467422 1209.621,615.519402 1241.984,647.894836 C1274.348,680.272271 1298.39,656.221291 1330.754,688.598726 C1363.119,720.977161 1339.078,745.029141 1371.443,777.407576 C1403.81,809.788012 1427.851,785.736032 1460.218,818.116467 C1492.585,850.496903 1468.543,874.547883 1500.91,906.928319"></path>
                        <path d="M697.162,27.3963678 C729.523,59.7708012 705.481,83.8217808 737.842,116.196214 C770.203,148.570648 794.245,124.519668 826.606,156.894101 C858.968,189.269535 834.926,213.320515 867.288,245.695949 C899.652,278.073383 923.693,254.021403 956.057,286.398838 C988.421,318.776272 964.379,342.828252 996.744,375.205687 C1029.107,407.582121 1053.149,383.530141 1085.512,415.906575 C1117.876,448.28501 1093.835,472.33599 1126.199,504.714425 C1158.563,537.09186 1182.605,513.04088 1214.969,545.418315 C1247.332,577.794749 1223.29,601.845729 1255.653,634.222163 C1288.017,666.600598 1312.059,642.548618 1344.423,674.926052 C1376.788,707.304487 1352.747,731.356467 1385.112,763.734902 C1417.479,796.115338 1441.52,772.063358 1473.887,804.443794 C1506.254,836.82423 1482.212,860.87521 1514.579,893.255645"></path>
                        <path d="M710.83,13.7236945 C743.191,46.0971274 719.149,70.1491075 751.51,102.523541 C783.871,134.897974 807.913,110.846995 840.274,143.221428 C872.636,175.596862 848.594,199.648842 880.956,232.023275 C913.32,264.40071 937.361,240.34873 969.725,272.725164 C1002.089,305.102599 978.047,329.154579 1010.412,361.532013 C1042.775,393.908447 1066.817,369.857468 1099.18,402.233902 C1131.545,434.612337 1107.503,458.663317 1139.867,491.041752 C1172.231,523.419186 1196.273,499.367206 1228.637,531.744641 C1261,564.121075 1236.958,588.173055 1269.321,620.548489 C1301.685,652.925924 1325.727,628.874944 1358.091,661.252379 C1390.456,693.630814 1366.415,717.682794 1398.78,750.061229 C1431.147,782.441665 1455.188,758.389685 1487.555,790.77012 C1519.922,823.150556 1495.88,847.201536 1528.247,879.581972"></path>
                        <path d="M724.498,0.0490203404 C756.859,32.4234537 732.817,56.4744334 765.178,88.8488667 C797.539,121.2233 821.581,97.1723205 853.942,129.546754 C886.304,161.922188 862.262,185.973167 894.624,218.348601 C926.988,250.726036 951.029,226.674056 983.393,259.05149 C1015.757,291.428925 991.715,315.480905 1024.08,347.85834 C1056.443,380.234774 1080.485,356.182794 1112.848,388.560228 C1145.212,420.937663 1121.171,444.989643 1153.535,477.367078 C1185.899,509.744512 1209.941,485.693533 1242.305,518.070967 C1274.668,550.447401 1250.626,574.498381 1282.989,606.874815 C1315.353,639.25325 1339.395,615.20127 1371.759,647.578705 C1404.124,679.95714 1380.083,704.00912 1412.448,736.387555 C1444.815,768.767991 1468.856,744.716011 1501.223,777.096447 C1533.59,809.476883 1509.548,833.527862 1541.915,865.908298"></path>
                    </g>
                </g>
            </g>
        </g>
    </g>
</svg>