<?xml version="1.0" encoding="UTF-8" standalone="no"?>
<!-- Generated by IcoMoon.io -->

<svg
   xmlns:dc="http://purl.org/dc/elements/1.1/"
   xmlns:cc="http://creativecommons.org/ns#"
   xmlns:rdf="http://www.w3.org/1999/02/22-rdf-syntax-ns#"
   xmlns:svg="http://www.w3.org/2000/svg"
   xmlns="http://www.w3.org/2000/svg"
   xmlns:sodipodi="http://sodipodi.sourceforge.net/DTD/sodipodi-0.dtd"
   xmlns:inkscape="http://www.inkscape.org/namespaces/inkscape"
   version="1.1"
   width="16"
   height="16"
   viewBox="0 0 16 16"
   id="svg2"
   inkscape:version="0.91 r13725"
   sodipodi:docname="book.svg">
  <metadata
     id="metadata12">
    <rdf:RDF>
      <cc:Work
         rdf:about="">
        <dc:format>image/svg+xml</dc:format>
        <dc:type
           rdf:resource="http://purl.org/dc/dcmitype/StillImage" />
        <dc:title></dc:title>
      </cc:Work>
    </rdf:RDF>
  </metadata>
  <defs
     id="defs10" />
  <sodipodi:namedview
     pagecolor="#ffffff"
     bordercolor="#666666"
     borderopacity="1"
     objecttolerance="10"
     gridtolerance="10"
     guidetolerance="10"
     inkscape:pageopacity="0"
     inkscape:pageshadow="2"
     inkscape:window-width="1920"
     inkscape:window-height="1017"
     id="namedview8"
     showgrid="false"
     inkscape:zoom="11.8"
     inkscape:cx="10"
     inkscape:cy="26.949153"
     inkscape:window-x="-8"
     inkscape:window-y="-8"
     inkscape:window-maximized="1"
     inkscape:current-layer="svg2" />
  <path
     style="fill:#aeafb5;stroke:none;stroke-width:0.2;stroke-miterlimit:4;stroke-dasharray:none;stroke-opacity:1;fill-opacity:1"
     d="m 3.2469062,0.099609 c -0.7414902,0 -1.3465156,0.60502536 -1.3465156,1.3465156 l 0,12.4755244 c 0,1.199777 0.9781841,2.17796 2.1779601,2.17796 l 9.1497473,0 c 0.74149,0 1.344586,-0.605209 1.344586,-1.346515 l 0,-12.4755249 c 0,-0.2826832 -0.229905,-0.5150713 -0.513141,-0.5150712 -0.283238,0 -0.515072,0.2318344 -0.515072,0.5150712 l 0,10.8299969 -9.5780085,0 c -0.3260466,0 -0.5922354,0.26619 -0.5922354,0.592236 0,0.326047 0.2661888,0.592235 0.5922354,0.592235 l 9.5780085,0 0,0.461057 c 0,0.176442 -0.140485,0.318302 -0.316373,0.318302 l -9.1497473,0 c -0.6342229,0 -1.1497468,-0.515524 -1.1497469,-1.149747 0,-0.634222 0.515524,-1.149746 1.1497469,-1.149746 l 7.4849293,0 c 0.741305,0 1.346515,-0.603097 1.346515,-1.344587 l 0,-9.9811914 c 0,-0.74149025 -0.605025,-1.3465156 -1.346515,-1.3465156 l -8.3163738,0 z m 0,1.0282132 8.3163738,0 c 0.175889,0 0.318302,0.1424134 0.318302,0.3183024 l 0,9.9811914 c 0,0.175888 -0.14186,0.316374 -0.318302,0.316373 l -7.4849293,0 c -0.4302384,0 -0.81123,0.16757 -1.1497469,0.383892 l 0,-10.6814564 c 0,-0.175889 0.1424135,-0.3183024 0.3183024,-0.3183024 z"
     id="path4"
     inkscape:connector-curvature="0" />
</svg>
