<?xml version="1.0" encoding="utf-8"?>
<!-- Generator: Adobe Illustrator 19.2.1, SVG Export Plug-In . SVG Version: 6.00 Build 0)  -->
<svg version="1.1" id="Слой_1" xmlns="http://www.w3.org/2000/svg" xmlns:xlink="http://www.w3.org/1999/xlink" x="0px" y="0px"
	 viewBox="0 0 25 25" style="enable-background:new 0 0 25 25;" xml:space="preserve">
<style type="text/css">
	.st0{fill:#178ACB;}
	.st1{fill:#010101;}
	.st2{fill:#FFFFFF;}
	.st3{fill:#1D8ACB;}
	.st4{fill:#EDEDEE;}
	.st5{fill:#0656A6;}
	.st6{fill:#D52539;}
	.st7{fill:#188BCB;}
	.st8{fill:none;stroke:#10B7EB;stroke-width:1.3;stroke-linecap:round;stroke-linejoin:round;stroke-dasharray:3,5;}
	.st9{fill:#10B7EB;}
	.st10{fill:#5CC7D5;}
	.st11{fill:none;stroke:#1D8ACB;stroke-width:1.3;stroke-linecap:round;stroke-linejoin:round;stroke-miterlimit:10;}
	.st12{fill:none;stroke:#C8C7C7;stroke-width:0.5;stroke-linecap:round;stroke-linejoin:round;stroke-miterlimit:10;}
	.st13{fill:none;stroke:#1D8ACB;stroke-width:1.1666;stroke-linecap:round;stroke-linejoin:round;stroke-miterlimit:10;}
	.st14{fill:none;stroke:#1D8ACB;stroke-width:0.9318;stroke-linecap:round;stroke-linejoin:round;stroke-miterlimit:10;}
	.st15{fill:none;stroke:#2089CA;stroke-width:1.3;stroke-linecap:round;stroke-linejoin:round;stroke-miterlimit:10;}
	.st16{fill:#5CC6D4;}
	.st17{fill:#07B4E8;}
	.st18{opacity:0.88;fill:url(#SVGID_1_);}
	.st19{opacity:0.88;fill:url(#SVGID_2_);}
	.st20{opacity:0.88;fill:url(#SVGID_3_);}
	.st21{opacity:0.88;fill:url(#SVGID_4_);}
	.st22{fill:#5BC7D4;}
	.st23{fill:none;stroke:#07B4E8;stroke-width:1.3;stroke-linecap:round;stroke-linejoin:round;stroke-miterlimit:10;}
	.st24{fill:none;stroke:#5BC7D4;stroke-miterlimit:10;}
	.st25{fill:none;stroke:#FFFFFF;stroke-width:1.3;stroke-linecap:round;stroke-linejoin:round;stroke-miterlimit:10;}
	.st26{fill:none;stroke:#07B4E8;stroke-width:1.3;stroke-linecap:round;stroke-linejoin:round;stroke-dasharray:2.9516,4.9194;}
	
		.st27{fill:none;stroke:#07B4E8;stroke-width:1.3;stroke-linecap:round;stroke-linejoin:round;stroke-miterlimit:10;stroke-dasharray:3,5;}
	.st28{fill:none;stroke:#231F20;stroke-width:0.9254;stroke-miterlimit:10;}
	.st29{opacity:0.88;fill:url(#SVGID_5_);}
	.st30{opacity:0.88;fill:url(#SVGID_6_);}
	.st31{opacity:0.88;fill:url(#SVGID_7_);}
	.st32{opacity:0.88;fill:url(#SVGID_8_);}
	.st33{fill:none;stroke:#FFFFFF;stroke-width:1.5048;stroke-linecap:round;stroke-linejoin:round;stroke-miterlimit:10;}
	.st34{fill:#3A7EC1;}
	.st35{fill:#D4D3D3;}
	.st36{fill:#397FC1;}
	.st37{fill:none;stroke:#FFFFFF;stroke-width:1.689;stroke-linecap:round;stroke-linejoin:round;stroke-miterlimit:10;}
	.st38{fill:none;stroke:#B3B5B8;stroke-width:1.1006;stroke-linecap:round;stroke-linejoin:round;stroke-miterlimit:10;}
	.st39{fill:#1A89CA;}
	.st40{fill:#231F20;}
	.st41{fill:url(#SVGID_9_);}
	.st42{fill:url(#SVGID_10_);}
	.st43{fill:url(#SVGID_11_);}
	.st44{fill:url(#SVGID_12_);}
	.st45{fill:none;stroke:#5BC7D4;stroke-width:0.5;stroke-linecap:round;stroke-linejoin:round;stroke-miterlimit:10;}
	.st46{fill:url(#SVGID_13_);}
</style>
<g>
	<g>
		<g>
			<path class="st2" d="M19,18.6H6.3c-0.5,0-0.9-0.3-1-0.8L2.6,7c-0.1-0.3,0-0.6,0.2-0.9s0.5-0.4,0.8-0.4H19c0.6,0,1,0.4,1,1v10.8
				C20,18.1,19.6,18.6,19,18.6z M7.1,16.6h11V7.7H4.9L7.1,16.6z"/>
		</g>
		<g>
			<circle class="st2" cx="8.2" cy="21.7" r="1.3"/>
		</g>
		<g>
			<circle class="st2" cx="17.4" cy="21.7" r="1.3"/>
		</g>
		<g>
			<path class="st2" d="M19,7.7c-0.6,0-1-0.4-1-1V2.5c0-0.3,0.1-0.5,0.3-0.7c0.2-0.2,0.5-0.3,0.7-0.3c0.9,0,2.1,0.1,2.3,0
				c0.5-0.1,1.1,0.3,1.2,0.8c0.1,0.5-0.2,1-0.7,1.2c-0.3,0.1-1.1,0.1-1.8,0.1v3.2C20,7.3,19.6,7.7,19,7.7z"/>
		</g>
	</g>
</g>
</svg>
