<?xml version="1.0" encoding="UTF-8"?>
<svg width="12px" height="17px" viewBox="0 0 12 17" version="1.1" xmlns="http://www.w3.org/2000/svg" xmlns:xlink="http://www.w3.org/1999/xlink">
    <!-- Generator: Sketch 40 (33762) - http://www.bohemiancoding.com/sketch -->
    <title>color</title>
    <desc>Created with Sketch.</desc>
    <defs></defs>
    <g id="Page-1" stroke="none" stroke-width="1" fill="none" fill-rule="evenodd">
        <g id="ico" transform="translate(-1181.000000, -1301.000000)" fill="#AEAFB5">
            <g id="color" transform="translate(1181.000000, 1301.000000)">
                <path d="M5.81,16.456 C2.855,16.456 0.451,14.053 0.451,11.098 C0.451,8.361 4.845,1.365 5.346,0.577 C5.549,0.259 6.073,0.259 6.276,0.577 C6.777,1.365 11.171,8.361 11.171,11.098 C11.17,14.053 8.765,16.456 5.81,16.456 L5.81,16.456 Z M5.81,1.913 C4.297,4.388 1.55,9.261 1.55,11.098 C1.55,13.446 3.461,15.357 5.81,15.357 C8.159,15.357 10.07,13.446 10.07,11.098 C10.07,9.26 7.323,4.387 5.81,1.913 L5.81,1.913 Z" id="Shape"></path>
                <path d="M5.81,14.152 C3.855,14.152 2.265,12.562 2.265,10.607 C2.265,10.303 2.511,10.057 2.815,10.057 C3.119,10.057 3.365,10.303 3.365,10.607 C3.365,11.955 4.463,13.052 5.81,13.052 C7.157,13.052 8.255,11.954 8.255,10.607 C8.255,9.518 6.47,6.304 5.345,4.534 C5.183,4.278 5.258,3.937 5.515,3.774 C5.77,3.611 6.111,3.688 6.275,3.944 C6.59,4.44 9.355,8.843 9.355,10.607 C9.355,12.562 7.765,14.152 5.81,14.152 L5.81,14.152 Z" id="Shape"></path>
            </g>
        </g>
    </g>
</svg>