<?xml version="1.0" encoding="UTF-8"?>
<svg width="18px" height="14px" viewBox="0 0 18 14" version="1.1" xmlns="http://www.w3.org/2000/svg" xmlns:xlink="http://www.w3.org/1999/xlink">
    <!-- Generator: Sketch 40 (33762) - http://www.bohemiancoding.com/sketch -->
    <title>count</title>
    <desc>Created with Sketch.</desc>
    <defs></defs>
    <g id="Page-1" stroke="none" stroke-width="1" fill="none" fill-rule="evenodd">
        <g id="ico" transform="translate(-1178.000000, -1398.000000)" fill="#AEAFB5">
            <g id="count" transform="translate(1178.000000, 1398.000000)">
                <path d="M14.909,13.145 L2.731,13.145 C2.427,13.145 2.181,12.899 2.181,12.595 L2.181,5.315 C2.181,5.011 2.427,4.765 2.731,4.765 L14.909,4.765 C15.213,4.765 15.459,5.011 15.459,5.315 L15.459,12.595 C15.459,12.899 15.213,13.145 14.909,13.145 L14.909,13.145 Z M3.282,12.045 L14.36,12.045 L14.36,5.864 L3.282,5.864 L3.282,12.045 L3.282,12.045 Z" id="Shape"></path>
                <path d="M2.732,5.866 C2.515,5.866 2.31,5.737 2.222,5.523 L0.425,1.129 C0.311,0.848 0.446,0.526 0.727,0.411 C1.009,0.298 1.33,0.431 1.445,0.713 L3.242,5.107 C3.356,5.388 3.221,5.71 2.94,5.825 C2.871,5.852 2.801,5.866 2.732,5.866 L2.732,5.866 Z" id="Shape"></path>
                <path d="M14.713,5.866 C14.634,5.866 14.555,5.848 14.479,5.813 C14.205,5.684 14.086,5.356 14.215,5.081 L16.188,0.882 C16.318,0.606 16.645,0.49 16.92,0.618 C17.194,0.747 17.313,1.075 17.184,1.35 L15.211,5.549 C15.117,5.748 14.919,5.866 14.713,5.866 L14.713,5.866 Z" id="Shape"></path>
            </g>
        </g>
    </g>
</svg>