<?xml version="1.0" encoding="UTF-8"?>
<svg width="16px" height="33px" viewBox="0 0 16 33" version="1.1" xmlns="http://www.w3.org/2000/svg" xmlns:xlink="http://www.w3.org/1999/xlink">
    <!-- Generator: Sketch 40 (33762) - http://www.bohemiancoding.com/sketch -->
    <title>delete</title>
    <desc>Created with Sketch.</desc>
    <defs></defs>
    <g id="1440" stroke="none" stroke-width="1" fill="none" fill-rule="evenodd">
        <g id="Artboard" transform="translate(-1104.000000, -590.000000)">
            <g id="delete" transform="translate(1104.000000, 590.000000)">
                <g id="hover" transform="translate(0.000000, 17.000000)">
                    <path d="M14.505,15.414 C14.252,15.414 13.999,15.317 13.806,15.124 L0.783,2.1 C0.397,1.714 0.397,1.088 0.783,0.702 C1.169,0.316 1.795,0.316 2.181,0.702 L15.204,13.726 C15.59,14.112 15.59,14.738 15.204,15.124 C15.011,15.317 14.758,15.414 14.505,15.414 L14.505,15.414 Z" id="Shape" fill="#018AD1"></path>
                    <path d="M1.483,15.414 C1.23,15.414 0.977,15.317 0.784,15.124 C0.398,14.738 0.398,14.112 0.784,13.726 L13.807,0.702 C14.193,0.316 14.819,0.316 15.205,0.702 C15.591,1.088 15.591,1.714 15.205,2.1 L2.182,15.124 C1.988,15.317 1.735,15.414 1.483,15.414 L1.483,15.414 Z" id="Shape" fill="#0189D1"></path>
                </g>
                <g id="default" fill="#6D6E70">
                    <path d="M14.505,15.414 C14.252,15.414 13.999,15.317 13.806,15.124 L0.783,2.1 C0.397,1.714 0.397,1.088 0.783,0.702 C1.169,0.316 1.795,0.316 2.181,0.702 L15.204,13.726 C15.59,14.112 15.59,14.738 15.204,15.124 C15.011,15.317 14.758,15.414 14.505,15.414 L14.505,15.414 Z" id="Shape"></path>
                    <path d="M1.483,15.414 C1.23,15.414 0.977,15.317 0.784,15.124 C0.398,14.738 0.398,14.112 0.784,13.726 L13.807,0.702 C14.193,0.316 14.819,0.316 15.205,0.702 C15.591,1.088 15.591,1.714 15.205,2.1 L2.182,15.124 C1.988,15.317 1.735,15.414 1.483,15.414 L1.483,15.414 Z" id="Shape"></path>
                </g>
            </g>
        </g>
    </g>
</svg>