<?xml version="1.0" encoding="UTF-8"?>
<svg width="54px" height="64px" viewBox="0 0 54 64" version="1.1" xmlns="http://www.w3.org/2000/svg" xmlns:xlink="http://www.w3.org/1999/xlink">
    <!-- Generator: Sketch 40 (33762) - http://www.bohemiancoding.com/sketch -->
    <title>helper-ico-2</title>
    <desc>Created with Sketch.</desc>
    <defs></defs>
    <g id="Home-HD" stroke="none" stroke-width="1" fill="none" fill-rule="evenodd">
        <g id="Index" transform="translate(-335.000000, -1433.000000)" stroke-width="1.3">
            <g id="help_1_" transform="translate(1.000000, 1174.430054)">
                <g id="Group" transform="translate(330.000000, 152.183479)">
                    <g id="helper-ico-2" transform="translate(5.000000, 107.044417)">
                        <g id="Group" transform="translate(0.000000, 5.002076)">
                            <path d="M33.072,0.312129514 C33.072,0.312129514 18.928,15.4244002 16.986,17.1201038 C15.565,18.3606185 11.422,21.1537775 10.852,23.4007098 C10.152,26.1618555 11.707,30.7817725 11.707,30.7817725 C11.707,30.7817725 14.471,45.961071 14.306,47.4476878 C14.163,48.7362225 12.531,49.060357 11.091,49.8756953 C9.419,50.822088 8.259,51.8034952 7.108,52.4807763 C4.746,53.8693524 3.554,53.4621835 2.323,53.6522623 C0.565,53.9233748 0.077,55.2569282 0.802,56.2763512 C1.107,56.7045289 1.741,56.8165753 3.185,56.7995683 C4.351,57.2497551 6.93,56.8545911 8.533,56.844587 C11.299,56.8275799 11.249,56.3303736 14.013,56.0002366 C16.777,55.6700996 17.147,56.7835616 19.058,56.7615525 C20.394,56.7465463 21.703,56.1993192 21.939,54.887775 C22.255,53.126044 21.496,49.9007057 21.377,47.8518555 C21.31,46.6973765 21.901,41.5712495 22.199,37.1504151 C22.43,33.7259942 21.956,29.8283769 21.955,29.6943213 C21.955,29.6943213 35.543,24.0169655 40.145,19.4690785" id="Shape" stroke="#FFFFFF"></path>
                            <path d="M29.247,20.6125529 C27.429,22.3642798 21.12,26.4989954 18.706,25.7606891 C16.292,25.0223827 20.31,19.4500706 24.642,15.2523288 C28.376,11.6338273 37.164,4.93604815 39.508,5.87343711 C44.601,7.90828144 33.452,16.5588709 29.247,20.6125529 L29.247,20.6125529 Z" id="Shape" stroke="#00B5E9" stroke-dasharray="2.9516,4.9194"></path>
                        </g>
                        <polyline id="Shape" stroke="#00B5E9" points="18.31 4.49986716 17.56 13.1354504 8.739 14.0748402"></polyline>
                        <path d="M4.578,0.0800332088 L15.823,11.3297011" id="Shape" stroke="#00B5E9"></path>
                        <polyline id="Shape" stroke="#00B5E9" points="38.746 43.4810419 39.497 34.8444583 48.317 33.9060689"></polyline>
                        <path d="M52.478,47.8998755 L41.233,36.651208" id="Shape" stroke="#00B5E9"></path>
                    </g>
                </g>
            </g>
        </g>
    </g>
</svg>