<?xml version="1.0" encoding="UTF-8"?>
<svg width="54px" height="54px" viewBox="0 0 54 54" version="1.1" xmlns="http://www.w3.org/2000/svg" xmlns:xlink="http://www.w3.org/1999/xlink">
    <!-- Generator: Sketch 40 (33762) - http://www.bohemiancoding.com/sketch -->
    <title>helper-ico-3</title>
    <desc>Created with Sketch.</desc>
    <defs></defs>
    <g id="Home-HD" stroke="none" stroke-width="1" fill="none" fill-rule="evenodd">
        <g id="Index" transform="translate(-334.000000, -1546.000000)" stroke-width="1.3">
            <g id="help_1_" transform="translate(1.000000, 1174.430054)">
                <g id="Group" transform="translate(330.000000, 152.183479)">
                    <g id="helper-ico-3" transform="translate(3.000000, 220.091324)">
                        <g id="Group" transform="translate(4.000000, 1.000415)" stroke="#FFFFFF">
                            <path d="M0.738,45.6769531 C0.738,45.6769531 8.33,38.2668784 10.329,35.2666335 C12.328,32.2663885 13.728,22.8664882 16.327,22.0661561 C18.926,21.265824 17.127,23.8659029 20.525,24.2660689 C23.924,24.666235 23.724,22.4663221 25.523,24.4661519 C27.322,26.4659817 26.323,28.6658946 28.522,29.4662267 C30.721,30.2665587 31.121,32.9146575 28.922,35.1906019 C26.723,37.4665463 22.125,36.6662142 16.727,41.6662889 C11.329,46.6663636 6.765,51.1242134 6.765,51.1242134" id="Shape"></path>
                            <path d="M32.814,29.8803985 C36.186,28.466812 35.52,19.6671606 37.919,17.2661644 C40.318,14.8651681 48.801,7.36605645 48.801,7.36605645" id="Shape"></path>
                            <path d="M42.048,0.451187215 C42.048,0.451187215 32.674,9.09777501 30.385,11.266675 C28.991,12.5882233 22.924,13.2665048 21.725,13.4665878 C20.525,13.6666708 18.077,17.1811291 17.927,19.6671606" id="Shape"></path>
                        </g>
                        <ellipse id="Oval" stroke="#00B5E9" stroke-dasharray="3,5" cx="26.8" cy="26.114836" rx="26" ry="26.0107929"></ellipse>
                    </g>
                </g>
            </g>
        </g>
    </g>
</svg>