<?xml version="1.0" encoding="UTF-8"?>
<svg width="40px" height="67px" viewBox="0 0 40 67" version="1.1" xmlns="http://www.w3.org/2000/svg" xmlns:xlink="http://www.w3.org/1999/xlink">
    <!-- Generator: Sketch 40 (33762) - http://www.bohemiancoding.com/sketch -->
    <title>helper-ico-6</title>
    <desc>Created with Sketch.</desc>
    <defs></defs>
    <g id="Home-HD" stroke="none" stroke-width="1" fill="none" fill-rule="evenodd">
        <g id="Index" transform="translate(-757.000000, -1536.000000)" stroke="#FFFFFF" stroke-width="1.3">
            <g id="help_1_" transform="translate(1.000000, 1174.430054)">
                <g id="Group" transform="translate(330.000000, 152.183479)">
                    <g id="helper-ico-6" transform="translate(427.000000, 210.087173)">
                        <path d="M12.363,66.0704151 C12.363,66.0704151 11.581,62.7460357 7.085,61.3764674 C2.589,60.0078995 0.003,55.5340432 0.634,51.2062474 C2.002,41.818352 13.732,41.0360274 13.341,38.4939726 C12.95,35.9509174 9.579,37.6846368 9.188,34.7514197 C8.797,31.8182026 15.491,28.1286716 17.25,26.5640224 C19.009,24.9993732 20.238,19.9142632 18.646,19.5231009 C17.054,19.1319386 13.731,19.7181818 12.753,17.371208 C11.775,15.0242341 12.558,8.96171856 12.362,7.00590702 C12.166,5.05009548 11.189,4.65893317 13.73,2.70312163 C16.271,0.747310087 29.37,-1.79474471 30.347,7.20098796 C31.324,16.1967206 28.392,19.5221005 30.347,21.477912 C32.302,23.4337235 28.783,23.4337235 28.001,22.0641553 C27.219,20.6955874 34.113,28.9089954 35.749,32.6255376 C37.385,36.3410793 40.564,42.2085139 35.749,44.3604068 C30.934,46.5112993 24.687,48.0759485 24.976,49.4455168 C25.265,50.8140847 27.806,56.095276 27.806,60.2019801 C27.806,64.3086841 28.001,66.0694147 28.001,66.0694147" id="Shape"></path>
                        <path d="M26.243,42.796758 C25.785,43.1629099 29.371,32.431457 29.371,32.431457 C29.371,32.431457 34.454,36.7342424 33.281,39.6674595 C32.108,42.601677 27.22,42.0144334 26.243,42.796758 L26.243,42.796758 Z" id="Shape"></path>
                    </g>
                </g>
            </g>
        </g>
    </g>
</svg>