<?xml version="1.0" encoding="UTF-8"?>
<svg width="54px" height="67px" viewBox="0 0 54 67" version="1.1" xmlns="http://www.w3.org/2000/svg" xmlns:xlink="http://www.w3.org/1999/xlink">
    <!-- Generator: Sketch 40 (33762) - http://www.bohemiancoding.com/sketch -->
    <title>helper-ico-1</title>
    <desc>Created with Sketch.</desc>
    <defs></defs>
    <g id="Home-HD" stroke="none" stroke-width="1" fill="none" fill-rule="evenodd">
        <g id="Index" transform="translate(-330.000000, -1327.000000)" stroke-width="1.3">
            <g id="help_1_" transform="translate(1.000000, 1174.430054)">
                <g id="Group" transform="translate(330.000000, 152.183479)">
                    <g id="helper-ico-1">
                        <path d="M33.64,22.7984599 C30.204,22.7984599 27.28,24.960357 26.131,27.994616 C24.982,24.9593566 22.058,22.7984599 18.622,22.7984599 C14.184,22.7984599 10.586,26.3979535 10.586,30.8377958 C10.586,38.4289456 23.956,48.1079618 26.131,48.1079618 C28.306,48.1079618 41.676,38.1978497 41.676,30.8377958 C41.676,26.3979535 38.078,22.7984599 33.64,22.7984599 L33.64,22.7984599 Z" id="Shape" stroke="#FFFFFF"></path>
                        <path d="M0.13,33.7570071 C0.13,19.3920465 11.771,7.7462142 26.13,7.7462142" id="Shape" stroke="#00B5E9"></path>
                        <path d="M52.13,33.7570071 C52.13,48.1219676 40.489,59.7677999 26.13,59.7677999" id="Shape" stroke="#00B5E9"></path>
                        <polyline id="Shape" stroke="#00B5E9" points="22.095 0.828343711 27.904 7.7462142 22.095 14.9411997"></polyline>
                        <polyline id="Shape" stroke="#00B5E9" points="30.299 66.8237277 24.49 59.9058572 30.299 52.7118721"></polyline>
                    </g>
                </g>
            </g>
        </g>
    </g>
</svg>