<?xml version="1.0" encoding="UTF-8"?>
<svg width="59px" height="47px" viewBox="0 0 59 47" version="1.1" xmlns="http://www.w3.org/2000/svg" xmlns:xlink="http://www.w3.org/1999/xlink">
    <!-- Generator: Sketch 40 (33762) - http://www.bohemiancoding.com/sketch -->
    <title>helper-ico-5</title>
    <desc>Created with Sketch.</desc>
    <defs></defs>
    <g id="Home-HD" stroke="none" stroke-width="1" fill="none" fill-rule="evenodd">
        <g id="Index" transform="translate(-747.000000, -1448.000000)" stroke-width="1.3">
            <g id="help_1_" transform="translate(1.000000, 1174.430054)">
                <g id="Group" transform="translate(330.000000, 152.183479)">
                    <g id="helper-ico-5" transform="translate(416.000000, 121.050228)">
                        <g id="Group" transform="translate(15.000000, 9.003736)" stroke="#00B5E9">
                            <path d="M11.604,7.40707347 L11.604,0.260107929 C8.792,0.260107929 2.409,4.51787464 1.345,11.4357451 C0.281,18.3536156 2.485,20.9386883 4.157,20.9386883 C5.954,20.9386883 8.228,19.7441926 9.787,17.9034288" id="Shape"></path>
                            <path d="M16.24,6.56972603 L16.24,0.260107929 C19.106,0.260107929 25.611,4.51787464 26.696,11.4357451 C27.78,18.3536156 25.534,20.9386883 23.83,20.9386883 C23.055,20.9386883 22.194,20.7245994 21.337,20.3384392" id="Shape"></path>
                            <path d="M13.58,8.24242009 C15.066,7.47210046 16.772,9.00273557 17.228,10.5993981 C17.684,12.1960606 17.228,13.5646285 18.596,14.4770071 C19.964,15.3893856 21.028,17.5943005 20.04,18.9628684 C19.052,20.3314363 13.125,19.0389 11.605,16.681922 C10.084,14.324944 11.528,9.30686177 13.58,8.24242009 L13.58,8.24242009 Z" id="Shape"></path>
                            <path d="M17.607,22.0791615 C18.212,22.9675301 15.555,26.032802 13.351,27.0972437 C11.147,28.1616853 10.083,28.38978 10.083,28.38978 C10.083,28.38978 7.499,31.9632628 5.903,32.9516729 C4.307,33.940083 3.547,34.3202408 2.407,32.4194521 C1.267,30.5186633 -0.405,24.3611083 2.711,23.068572 C5.827,21.7760357 8.182,21.7760357 9.626,21.395878 C11.072,21.0147198 16.468,20.4064674 17.607,22.0791615 L17.607,22.0791615 Z" id="Shape"></path>
                            <path d="M19.047,22.0031299 C21.169,22.3072561 24.827,22.6113823 24.447,25.5005812 C24.067,28.38978 16.24,34.0151142 13.922,32.7986094 C12.089,31.83621 14.796,29.7213325 14.796,28.1806932" id="Shape"></path>
                            <path d="M26.271,26.9451806 C27.485,26.8181279 28.145,28.38978 26.98,30.746758 C25.815,33.103736 20.977,34.1271606 20.674,32.96868 C20.37,31.8111997 22.928,30.6607223 23.732,29.8273765 C25.135,28.3727729 24.827,27.0962433 26.271,26.9451806 L26.271,26.9451806 Z" id="Shape"></path>
                        </g>
                        <path d="M48.149,22.933516 C48.241,24.4391407 47.699,43.8742051 47.987,46.3602366" id="Shape" stroke="#FFFFFF"></path>
                        <path d="M57.41,46.3602366 C57.41,46.3602366 58.469,38.1248194 57.627,32.1103238 C56.862,26.6440556 56.984,24.3611083 57.07,21.7510253 C57.207,17.5682897 56.801,9.68902034 52.147,7.65117476 C47.078,5.43025322 35.55,3.3503902 35.55,3.3503902 L35.55,0.50120797" id="Shape" stroke="#FFFFFF"></path>
                        <path d="M10.175,22.933516 C10.017,24.5441843 10.211,44.4694521 9.938,46.956484" id="Shape" stroke="#FFFFFF"></path>
                        <path d="M1.511,46.956484 C1.511,46.956484 0.452,38.1248194 1.25,32.1103238 C1.975,26.6440556 1.75,24.6232171 1.668,21.7510253 C1.568,18.2545745 1.812,9.68902034 6.223,7.65117476 C11.028,5.43025322 22.178,3.3503902 22.178,3.3503902 L22.178,0.50120797" id="Shape" stroke="#FFFFFF"></path>
                    </g>
                </g>
            </g>
        </g>
    </g>
</svg>