<?xml version="1.0" encoding="UTF-8"?>
<svg width="14px" height="18px" viewBox="0 0 14 18" version="1.1" xmlns="http://www.w3.org/2000/svg" xmlns:xlink="http://www.w3.org/1999/xlink">
    <!-- Generator: Sketch 40 (33762) - http://www.bohemiancoding.com/sketch -->
    <title>length</title>
    <desc>Created with Sketch.</desc>
    <defs></defs>
    <g id="Page-1" stroke="none" stroke-width="1" fill="none" fill-rule="evenodd">
        <g id="ico" transform="translate(-1180.000000, -1361.000000)" fill="#AEAFB5">
            <g id="length" transform="translate(1180.000000, 1361.000000)">
                <path d="M4.967,17.787 L2.146,17.787 C1.107,17.787 0.262,16.908 0.262,15.828 L0.262,2.261 C0.262,1.181 1.107,0.303 2.146,0.303 L4.967,0.303 C6.006,0.303 6.851,1.181 6.851,2.261 L6.851,15.828 C6.851,16.909 6.006,17.787 4.967,17.787 L4.967,17.787 Z M2.146,1.403 C1.713,1.403 1.362,1.789 1.362,2.261 L1.362,15.828 C1.362,16.302 1.714,16.687 2.146,16.687 L4.967,16.687 C5.4,16.687 5.751,16.301 5.751,15.828 L5.751,2.261 C5.751,1.788 5.399,1.403 4.967,1.403 L2.146,1.403 L2.146,1.403 Z" id="Shape"></path>
                <path d="M10.825,14.984 C10.521,14.984 10.275,14.738 10.275,14.434 L10.275,3.293 C10.275,2.989 10.521,2.743 10.825,2.743 C11.129,2.743 11.375,2.989 11.375,3.293 L11.375,14.434 C11.374,14.738 11.128,14.984 10.825,14.984 L10.825,14.984 Z" id="Shape"></path>
                <path d="M12.808,3.152 C12.68,3.153 12.552,3.108 12.448,3.018 L10.793,1.586 L9.21,3.011 C8.983,3.214 8.636,3.197 8.433,2.97 C8.23,2.743 8.248,2.396 8.474,2.193 L10.418,0.444 C10.623,0.259 10.936,0.255 11.147,0.437 L13.169,2.186 C13.398,2.384 13.424,2.732 13.225,2.962 C13.116,3.087 12.962,3.152 12.808,3.152 L12.808,3.152 Z" id="Shape"></path>
                <path d="M10.864,17.787 C10.736,17.787 10.607,17.743 10.504,17.653 L8.482,15.903 C8.253,15.704 8.227,15.357 8.426,15.127 C8.623,14.898 8.971,14.872 9.202,15.071 L10.857,16.503 L12.44,15.078 C12.667,14.874 13.015,14.892 13.217,15.119 C13.42,15.345 13.402,15.693 13.176,15.896 L11.232,17.646 C11.127,17.741 10.996,17.787 10.864,17.787 L10.864,17.787 Z" id="Shape"></path>
            </g>
        </g>
    </g>
</svg>