<?xml version="1.0" encoding="UTF-8"?>
<svg width="21px" height="16px" viewBox="0 0 21 16" version="1.1" xmlns="http://www.w3.org/2000/svg" xmlns:xlink="http://www.w3.org/1999/xlink">
    <!-- Generator: Sketch 40 (33762) - http://www.bohemiancoding.com/sketch -->
    <title>size</title>
    <desc>Created with Sketch.</desc>
    <defs></defs>
    <g id="Page-1" stroke="none" stroke-width="1" fill="none" fill-rule="evenodd">
        <g id="ico" transform="translate(-1176.000000, -1332.000000)" fill="#AEAFB5">
            <g id="size" transform="translate(1176.000000, 1332.000000)">
                <path d="M8.386,15.443 C7.509,15.443 6.631,15.109 5.963,14.441 L1.816,10.292 C1.168,9.645 0.811,8.784 0.811,7.869 C0.811,6.953 1.168,6.092 1.816,5.445 L5.963,1.298 C7.258,0.001 9.518,0.003 10.811,1.298 L16.995,7.483 C17.209,7.697 17.209,8.043 16.995,8.256 L10.81,14.441 C10.142,15.109 9.264,15.443 8.386,15.443 L8.386,15.443 Z M8.386,1.387 C7.763,1.387 7.177,1.63 6.736,2.07 L2.589,6.218 C2.149,6.659 1.906,7.244 1.906,7.868 C1.906,8.491 2.149,9.077 2.589,9.518 L6.736,13.666 C7.648,14.574 9.127,14.573 10.036,13.666 L15.833,7.868 L10.036,2.07 C9.595,1.63 9.01,1.387 8.386,1.387 L8.386,1.387 Z" id="Shape"></path>
                <path d="M16.27,8.754 C16.13,8.754 15.99,8.701 15.883,8.594 C15.668,8.38 15.668,8.034 15.883,7.821 L19.005,4.699 C19.219,4.485 19.565,4.485 19.778,4.699 L20.649,5.57 C20.863,5.784 20.863,6.13 20.649,6.343 C20.435,6.557 20.089,6.557 19.876,6.343 L19.392,5.86 L16.657,8.594 C16.55,8.7 16.41,8.754 16.27,8.754 L16.27,8.754 Z" id="Shape"></path>
                <path d="M8.23,10.792 C7.491,10.792 6.795,10.504 6.273,9.982 C5.75,9.46 5.463,8.765 5.463,8.026 C5.463,7.287 5.751,6.592 6.273,6.07 C7.316,5.025 9.142,5.023 10.186,6.07 C10.709,6.592 10.996,7.287 10.996,8.026 C10.996,8.765 10.708,9.46 10.186,9.982 C9.665,10.504 8.969,10.792 8.23,10.792 L8.23,10.792 Z M8.23,6.353 C7.783,6.353 7.362,6.527 7.046,6.843 C6.73,7.159 6.556,7.579 6.556,8.026 C6.556,8.473 6.73,8.893 7.046,9.209 C7.678,9.84 8.781,9.842 9.412,9.209 C9.728,8.893 9.902,8.473 9.902,8.026 C9.902,7.579 9.728,7.159 9.412,6.843 C9.097,6.527 8.676,6.353 8.23,6.353 L8.23,6.353 Z" id="Shape"></path>
            </g>
        </g>
    </g>
</svg>