<?xml version="1.0" encoding="UTF-8"?>
<svg width="34px" height="16px" viewBox="0 0 34 16" version="1.1" xmlns="http://www.w3.org/2000/svg" xmlns:xlink="http://www.w3.org/1999/xlink">
    <!-- Generator: Sketch 40 (33762) - http://www.bohemiancoding.com/sketch -->
    <title>stars</title>
    <desc>Created with Sketch.</desc>
    <defs></defs>
    <g id="Page-1" stroke="none" stroke-width="1" fill="none" fill-rule="evenodd">
        <g id="ico" transform="translate(-1180.000000, -1447.000000)">
            <g id="stars" transform="translate(1180.000000, 1447.000000)">
                <path d="M9.52325967,0.558 L11.3362597,4.231 C11.4822597,4.526 11.7632597,4.731 12.0892597,4.778 L16.1432597,5.367 C16.9642597,5.486 17.2912597,6.495 16.6982597,7.074 L13.7652597,9.933 C13.5292597,10.163 13.4222597,10.494 13.4772597,10.819 L14.1692597,14.857 C14.3092597,15.674 13.4512597,16.298 12.7172597,15.912 L9.09125967,14.006 C8.79925967,13.853 8.45125967,13.853 8.16025967,14.006 L4.53425967,15.912 C3.80025967,16.298 2.94225967,15.675 3.08225967,14.857 L3.77425967,10.819 C3.83025967,10.494 3.72225967,10.163 3.48625967,9.933 L0.553259666,7.074 C-0.0407403342,6.495 0.287259666,5.486 1.10825967,5.367 L5.16225967,4.778 C5.48825967,4.731 5.77025967,4.526 5.91525967,4.231 L7.72825967,0.558 C8.09525967,-0.186 9.15625967,-0.186 9.52325967,0.558 L9.52325967,0.558 Z" id="Shape" fill="#6FB8EB"></path>
                <path d="M26.2732597,0.558 L28.0862597,4.231 C28.2322597,4.526 28.5142597,4.731 28.8392597,4.778 L32.8932597,5.367 C33.7142597,5.486 34.0412597,6.495 33.4482597,7.074 L30.5152597,9.933 C30.2792597,10.163 30.1722597,10.494 30.2272597,10.819 L30.9192597,14.857 C31.0592597,15.674 30.2012597,16.298 29.4672597,15.912 L25.8412597,14.006 C25.5492597,13.853 25.2012597,13.853 24.9102597,14.006 L21.2842597,15.912 C20.5502597,16.298 19.6922597,15.675 19.8322597,14.857 L20.5242597,10.819 C20.5802597,10.494 20.4722597,10.163 20.2362597,9.933 L17.3032597,7.074 C16.7092597,6.495 17.0372597,5.486 17.8582597,5.367 L21.9122597,4.778 C22.2382597,4.731 22.5202597,4.526 22.6652597,4.231 L24.4782597,0.558 C24.8452597,-0.186 25.9062597,-0.186 26.2732597,0.558 L26.2732597,0.558 Z" id="Shape" fill="#AEAFB5"></path>
            </g>
        </g>
    </g>
</svg>