<?xml version="1.0" encoding="UTF-8"?>
<svg width="37px" height="35px" viewBox="0 0 37 35" version="1.1" xmlns="http://www.w3.org/2000/svg" xmlns:xlink="http://www.w3.org/1999/xlink">
    <!-- Generator: Sketch 40 (33762) - http://www.bohemiancoding.com/sketch -->
    <title>water</title>
    <desc>Created with Sketch.</desc>
    <defs></defs>
    <g id="Home-HD" stroke="none" stroke-width="1" fill="none" fill-rule="evenodd">
        <g id="Index" transform="translate(-324.000000, -2290.000000)" stroke="#00E5E9">
            <g id="composition_1_" transform="translate(1.000000, 2144.953093)">
                <g id="Group" transform="translate(324.000000, 91.037775)">
                    <g id="water" transform="translate(0.000000, 55.022831)">
                        <g id="Group" transform="translate(0.000000, 18.007472)">
                            <path d="M8.811,0.375155666 C8.811,1.97581984 6.892,3.27335824 4.525,3.27335824 C2.158,3.27335824 0.239,1.97581984 0.239,0.375155666" id="Shape"></path>
                            <path d="M17.383,0.375155666 C17.383,1.97581984 15.464,3.27335824 13.097,3.27335824 C10.73,3.27335824 8.811,1.97581984 8.811,0.375155666" id="Shape"></path>
                            <path d="M25.955,0.375155666 C25.955,1.97581984 24.036,3.27335824 21.669,3.27335824 C19.302,3.27335824 17.383,1.97581984 17.383,0.375155666" id="Shape"></path>
                            <path d="M34.528,0.375155666 C34.528,1.97581984 32.609,3.27335824 30.242,3.27335824 C27.875,3.27335824 25.956,1.97581984 25.956,0.375155666" id="Shape"></path>
                        </g>
                        <g id="Group" transform="translate(0.000000, 24.009963)">
                            <path d="M8.811,0.446185139 C8.811,2.04684932 6.892,3.34438771 4.525,3.34438771 C2.158,3.34438771 0.239,2.04684932 0.239,0.446185139" id="Shape"></path>
                            <path d="M17.383,0.446185139 C17.383,2.04684932 15.464,3.34438771 13.097,3.34438771 C10.73,3.34438771 8.811,2.04684932 8.811,0.446185139" id="Shape"></path>
                            <path d="M25.955,0.446185139 C25.955,2.04684932 24.036,3.34438771 21.669,3.34438771 C19.302,3.34438771 17.383,2.04684932 17.383,0.446185139" id="Shape"></path>
                            <path d="M34.528,0.446185139 C34.528,2.04684932 32.609,3.34438771 30.242,3.34438771 C27.875,3.34438771 25.956,2.04684932 25.956,0.446185139" id="Shape"></path>
                        </g>
                        <g id="Group" transform="translate(0.000000, 30.012453)">
                            <path d="M8.811,0.517214612 C8.811,2.11787879 6.892,3.41541719 4.525,3.41541719 C2.158,3.41541719 0.239,2.11787879 0.239,0.517214612" id="Shape"></path>
                            <path d="M17.383,0.517214612 C17.383,2.11787879 15.464,3.41541719 13.097,3.41541719 C10.73,3.41541719 8.811,2.11787879 8.811,0.517214612" id="Shape"></path>
                            <path d="M25.955,0.517214612 C25.955,2.11787879 24.036,3.41541719 21.669,3.41541719 C19.302,3.41541719 17.383,2.11787879 17.383,0.517214612" id="Shape"></path>
                            <path d="M34.528,0.517214612 C34.528,2.11787879 32.609,3.41541719 30.242,3.41541719 C27.875,3.41541719 25.956,2.11787879 25.956,0.517214612" id="Shape"></path>
                        </g>
                        <g id="Group" transform="translate(20.000000, 0.000000)">
                            <path d="M0.385,15.2933458 L0.385,6.2365878 L0.385,2.12488169 C0.385,1.02842673 1.274,0.1390577 2.37,0.1390577 L3.303,0.1390577" id="Shape"></path>
                            <path d="M8.85,15.2933458 L8.85,6.2365878 L8.85,2.12488169 C8.85,1.02842673 9.739,0.1390577 10.835,0.1390577 L11.951,0.1390577" id="Shape"></path>
                            <path d="M0.385,12.262088 L8.85,12.262088" id="Shape"></path>
                            <path d="M0.385,6.2365878 L8.85,6.2365878" id="Shape"></path>
                        </g>
                    </g>
                </g>
            </g>
        </g>
    </g>
</svg>